<svg width="145" height="24" viewBox="0 0 145 24" fill="none" xmlns="http://www.w3.org/2000/svg">
<g clip-path="url(#clip0_109_538)">
<mask id="mask0_109_538" style="mask-type:luminance" maskUnits="userSpaceOnUse" x="0" y="0" width="144" height="24">
<path d="M143.875 0.618408H0.746094V23.0035H143.875V0.618408Z" fill="white"/>
</mask>
<g mask="url(#mask0_109_538)">
<path d="M0.746094 10.149V0.618408H18.0233C18.0233 0.618408 20.7615 10.149 8.11507 10.149H0.746094Z" fill="black"/>
<path d="M18.2734 13.4004V22.9309H0.996195C0.996195 22.9309 -1.74201 13.4004 10.9021 13.4004H18.2734Z" fill="black"/>
<path d="M28.2821 5.02533H34.0321C36.3928 5.02533 37.9619 6.35713 37.9619 8.34013C37.9619 9.30787 37.3853 10.3503 36.5307 10.9766C38.0253 11.5034 39.0044 12.9347 39.0044 14.5424C39.0044 16.8035 37.3605 18.323 34.8982 18.323H28.2686V5.02533H28.2821ZM34.0344 10.4135C35.3527 10.4135 36.2187 9.63573 36.2187 8.49162C36.2187 7.3475 35.3527 6.56967 34.0344 6.56967H30.03V10.4H34.0344V10.4135ZM34.9004 16.765C36.3204 16.765 37.261 15.8108 37.261 14.3795C37.261 12.9482 36.3068 11.9557 34.914 11.9557H30.0164V16.765H34.9004Z" fill="black"/>
<path d="M40.0098 13.4633C40.0098 10.438 41.9679 8.42786 44.8689 8.42786C47.7699 8.42786 49.728 10.438 49.728 13.4633C49.728 16.4888 47.7699 18.4989 44.8689 18.4989C41.9679 18.4989 40.0098 16.4888 40.0098 13.4633ZM48.1837 13.4633C48.1837 11.2543 46.8519 9.78452 44.8689 9.78452C42.8859 9.78452 41.5541 11.2543 41.5541 13.4633C41.5541 15.6724 42.8859 17.1422 44.8689 17.1422C46.8519 17.1557 48.1837 15.6724 48.1837 13.4633Z" fill="black"/>
<path d="M51.2109 8.62909H52.7553V9.96085C53.4585 9.05648 54.5507 8.42786 55.5297 8.42786C55.8191 8.42786 56.1334 8.50244 56.321 8.61553V9.78228H55.6676C53.9221 9.78228 52.7666 10.9241 52.7666 12.6448V18.2953H51.2223V8.62685H51.2109V8.62909Z" fill="black"/>
<path d="M56.4443 13.4638C56.4443 10.4384 58.3776 8.42831 61.2537 8.42831C62.6103 8.42831 64.0281 9.16998 64.7833 10.2734V5.02533H66.3277V18.3094H64.7833V16.6655C64.0304 17.7713 62.6103 18.5106 61.2537 18.5106C58.3776 18.4971 56.4443 16.4892 56.4443 13.4638ZM64.7698 13.4638C64.7698 11.2547 63.4131 9.78502 61.4052 9.78502C59.3974 9.78502 58.0023 11.2547 58.0023 13.4638C58.0023 15.6729 59.3838 17.1427 61.4052 17.1427C63.4131 17.1562 64.7698 15.6729 64.7698 13.4638Z" fill="black"/>
<path d="M67.9902 13.4633C67.9902 10.438 69.9484 8.42786 72.8494 8.42786C75.7504 8.42786 77.7085 10.5239 77.7085 13.6149L77.557 13.7663H69.5594C69.634 15.7765 70.9522 17.1308 72.8494 17.1308C74.2807 17.1308 75.5243 16.2762 75.9516 14.9964H77.496C76.8809 17.0925 75.0223 18.4876 72.8494 18.4876C69.9484 18.5011 67.9902 16.491 67.9902 13.4656V13.4633ZM76.0624 12.421C75.7097 10.8517 74.4185 9.78452 72.8471 9.78452C71.2756 9.78452 69.9845 10.8517 69.6318 12.421H76.0602H76.0624Z" fill="black"/>
<path d="M79.3729 8.62909H80.9172V9.96085C81.6204 9.05648 82.7125 8.42786 83.6916 8.42786C83.9812 8.42786 84.2949 8.50244 84.483 8.61553V9.78228H83.8295C82.0839 9.78228 80.9285 10.9241 80.9285 12.6448V18.2953H79.3842V8.62685H79.3706L79.3729 8.62909Z" fill="black"/>
<path d="M86.0308 5.02533H87.5752V18.3094H86.0308V5.02533Z" fill="black"/>
<path d="M89.2588 13.4633C89.2588 10.438 91.2168 8.42786 94.1177 8.42786C97.0194 8.42786 98.9774 10.5239 98.9774 13.6149L98.8259 13.7663H90.8282C90.9031 15.7765 92.2212 17.1308 94.1177 17.1308C95.549 17.1308 96.793 16.2762 97.2207 14.9964H98.7644C98.1494 17.0925 96.2912 18.4876 94.1177 18.4876C91.206 18.5011 89.2588 16.491 89.2588 13.4656V13.4633ZM97.3331 12.421C96.9802 10.8517 95.6871 9.78452 94.1177 9.78452C92.5491 9.78452 91.2551 10.8517 90.9031 12.421H97.3314H97.3331Z" fill="black"/>
<path d="M99.5889 15.0223H101.045C101.083 16.3021 102.187 17.1568 103.819 17.1568C105.452 17.1568 106.456 16.5417 106.456 15.6125C106.456 14.8346 105.753 14.4073 103.731 13.9415C101.133 13.3649 100.229 12.6617 100.229 11.2304C100.229 9.55947 101.685 8.44244 103.833 8.44244C105.579 8.44244 107.085 9.43506 107.612 10.9025L106.194 11.253C105.904 10.387 104.95 9.79688 103.833 9.79688C102.615 9.79688 101.773 10.3237 101.773 11.1151C101.773 11.7686 102.377 12.1439 104.059 12.5464C106.985 13.1501 107.989 13.9279 107.989 15.5356C107.989 17.3196 106.318 18.5247 103.819 18.5247C101.335 18.4998 99.6255 17.1048 99.5889 15.0223Z" fill="black"/>
<path d="M108.795 15.0223H110.251C110.289 16.3021 111.393 17.1568 113.026 17.1568C114.658 17.1568 115.662 16.5417 115.662 15.6125C115.662 14.8346 114.959 14.4073 112.937 13.9415C110.339 13.3649 109.435 12.6617 109.435 11.2304C109.435 9.55947 110.891 8.44244 113.039 8.44244C114.785 8.44244 116.29 9.43506 116.819 10.9025L115.401 11.253C115.113 10.387 114.158 9.79688 113.041 9.79688C111.822 9.79688 110.981 10.3237 110.981 11.1151C110.981 11.7686 111.585 12.1439 113.267 12.5464C116.194 13.1501 117.197 13.9279 117.197 15.5356C117.197 17.3196 115.526 18.5247 113.027 18.5247C110.54 18.4998 108.833 17.1048 108.797 15.0223H108.795Z" fill="black"/>
<path d="M126.193 2.75726L121.756 20.7942H121.264L125.7 2.75726H126.193Z" fill="black"/>
<path d="M143.774 5.02533H141.909V18.5242H143.774V5.02533Z" fill="black"/>
<path d="M140.564 18.5242H138.536L134.775 7.56456L131.011 18.5242H128.987L133.416 6.11293C133.552 5.73306 133.801 5.02533 134.791 5.02533C135.755 5.02533 135.998 5.72176 136.13 6.09258L140.559 18.5242H140.564Z" fill="black"/>
</g>
</g>
<defs>
<clipPath id="clip0_109_538">
<rect width="144.621" height="23.3" fill="white" transform="translate(0 0.160889)"/>
</clipPath>
</defs>
</svg>
